<?xml version="1.0" encoding="UTF-8" standalone="no"?>
<!DOCTYPE svg PUBLIC "-//W3C//DTD SVG 1.1//EN" "http://www.w3.org/Graphics/SVG/1.1/DTD/svg11.dtd">
<svg width="100%" height="100%" viewBox="0 0 64 64" version="1.1" xmlns="http://www.w3.org/2000/svg" xmlns:xlink="http://www.w3.org/1999/xlink" xml:space="preserve" xmlns:serif="http://www.serif.com/" style="fill-rule:evenodd;clip-rule:evenodd;stroke-linejoin:round;stroke-miterlimit:2;">
    <rect id="art-board" serif:id="art board" x="0" y="0" width="64" height="64" style="fill:none;"/>
    <clipPath id="_clip1">
        <rect id="art-board1" serif:id="art board" x="0" y="0" width="64" height="64"/>
    </clipPath>
    <g clip-path="url(#_clip1)">
        <g transform="matrix(1.07563,0,0,1.09402,-4.84034,-6.01709)">
            <g id="icon-base">
                <path d="M64,20.125C64,12.053 57.335,5.5 49.125,5.5L19.375,5.5C11.165,5.5 4.5,12.053 4.5,20.125L4.5,49.375C4.5,57.447 11.165,64 19.375,64L49.125,64C57.335,64 64,57.447 64,49.375L64,20.125Z" style="fill:rgb(242,242,242);"/>
            </g>
        </g>
        <g id="icon">
            <g transform="matrix(2.06422,0,0,5.01048,-16.8761,-81.34)">
                <path d="M18.647,27.411C17.011,27.403 15.722,27.257 14.78,26.971C13.838,26.685 13.367,26.25 13.367,25.664L13.367,24.049C13.367,23.675 13.087,23.41 12.527,23.252C11.967,23.095 11.162,23.016 10.113,23.016L10.113,22.214C11.162,22.207 11.967,22.126 12.527,21.972C13.087,21.819 13.367,21.559 13.367,21.192L13.367,19.566C13.367,18.981 13.856,18.545 14.833,18.259C15.811,17.973 17.082,17.831 18.647,17.831L18.647,18.622C17.722,18.629 16.998,18.713 16.473,18.874C15.949,19.035 15.687,19.295 15.687,19.654L15.687,21.236C15.687,21.991 14.718,22.437 12.78,22.577L12.78,22.643C14.718,22.782 15.687,23.228 15.687,23.983L15.687,25.598C15.687,25.957 15.944,26.215 16.46,26.372C16.976,26.53 17.704,26.612 18.647,26.62L18.647,27.411Z" style="fill:rgb(48,48,48);fill-rule:nonzero;"/>
            </g>
            <g transform="matrix(2.06422,0,0,5.01048,21.289,-81.34)">
                <path d="M10.22,26.62C11.144,26.605 11.869,26.519 12.393,26.361C12.918,26.204 13.18,25.946 13.18,25.587L13.18,23.994C13.18,23.239 14.149,22.793 16.087,22.654L16.087,22.588C14.149,22.448 13.18,22.002 13.18,21.247L13.18,19.643C13.18,19.284 12.922,19.026 12.407,18.869C11.891,18.711 11.162,18.629 10.22,18.622L10.22,17.831C11.856,17.838 13.144,17.984 14.087,18.27C15.029,18.556 15.5,18.991 15.5,19.577L15.5,21.181C15.5,21.555 15.78,21.82 16.34,21.978C16.9,22.135 17.704,22.214 18.753,22.214L18.753,23.016C17.704,23.023 16.9,23.104 16.34,23.258C15.78,23.412 15.5,23.672 15.5,24.038L15.5,25.675C15.5,26.253 15.011,26.687 14.033,26.977C13.056,27.266 11.784,27.411 10.22,27.411L10.22,26.62Z" style="fill:rgb(48,48,48);fill-rule:nonzero;"/>
            </g>
            <g transform="matrix(0.5005,-0.865737,0.865737,0.5005,-7.85743,39.239)">
                <path d="M23,24L23.05,24L23.1,24.001L23.151,24.002L23.201,24.003L23.25,24.004L23.3,24.006L23.36,24.009L23.402,24.011C23.434,24.013 23.465,24.015 23.496,24.017L23.548,24.021L23.597,24.025L23.647,24.03L23.696,24.034L23.745,24.039L23.803,24.046L23.844,24.051C23.876,24.054 23.907,24.058 23.938,24.062L23.988,24.069L24.037,24.076L24.085,24.084L24.133,24.091L24.181,24.099L24.238,24.109L24.278,24.117C24.309,24.122 24.34,24.128 24.371,24.134L24.42,24.144L24.467,24.154L24.514,24.165L24.561,24.175L24.622,24.189L24.664,24.199L24.703,24.209C24.734,24.217 24.764,24.225 24.795,24.233L24.842,24.245L24.888,24.258L24.915,24.266L24.957,24.278L24.998,24.29L25.039,24.302L25.074,24.313C25.133,24.331 25.192,24.35 25.252,24.371L25.285,24.382L25.325,24.396L25.366,24.41L25.406,24.425L25.446,24.44L25.478,24.452C25.537,24.474 25.595,24.497 25.653,24.521L25.684,24.534L25.724,24.55L25.763,24.567L25.802,24.584L25.841,24.601L25.873,24.616C25.915,24.635 25.958,24.655 26,24.675C27.497,25.386 28.702,26.614 29.384,28.127L29.399,28.159L29.416,28.198L29.433,28.237L29.45,28.276L29.466,28.316L29.479,28.347C29.503,28.405 29.526,28.463 29.548,28.522L29.56,28.554L29.575,28.594L29.59,28.634L29.604,28.675L29.618,28.715L29.629,28.748C29.649,28.807 29.669,28.867 29.687,28.926L29.698,28.961L29.71,29.002L29.722,29.043L29.734,29.085L29.746,29.126L29.757,29.168L29.767,29.205C29.776,29.236 29.783,29.267 29.791,29.297L29.803,29.345L29.814,29.392L29.825,29.439L29.835,29.486L29.849,29.547L29.858,29.59L29.866,29.629C29.872,29.66 29.878,29.691 29.883,29.722L29.892,29.771L29.901,29.819L29.909,29.867L29.916,29.915L29.924,29.963L29.932,30.022L29.938,30.062C29.942,30.093 29.946,30.124 29.949,30.156L29.955,30.206L29.961,30.255L29.966,30.304L29.97,30.353L29.975,30.403L29.98,30.462L29.983,30.504C29.985,30.535 29.987,30.566 29.989,30.598L29.991,30.65L29.994,30.7L29.996,30.75L29.997,30.799L29.998,30.849L29.999,30.91L30,30.952C30,30.968 30,30.984 30,31C30,32.073 29.758,33.09 29.325,34L29,34C27.344,34 26,32.656 26,31C26,29.344 24.656,28 23,28C23,28 13,28 13,28C11.344,28 10,29.344 10,31C10,32.656 11.344,34 13,34L22.675,34C23.366,35.455 24.545,36.634 26,37.325C25.09,37.758 24.073,38 23,38L13,38C9.137,38 6,34.863 6,31C6,27.137 9.137,24 13,24L23,24Z" style="fill:rgb(9,184,243);"/>
            </g>
            <g transform="matrix(-0.5005,0.865737,-0.865737,-0.5005,71.8442,25.2517)">
                <path d="M23,24L23.05,24L23.1,24.001L23.151,24.002L23.201,24.003L23.25,24.004L23.3,24.006L23.36,24.009L23.402,24.011C23.434,24.013 23.465,24.015 23.496,24.017L23.548,24.021L23.597,24.025L23.647,24.03L23.696,24.034L23.745,24.039L23.803,24.046L23.844,24.051C23.876,24.054 23.907,24.058 23.938,24.062L23.988,24.069L24.037,24.076L24.085,24.084L24.133,24.091L24.181,24.099L24.238,24.109L24.278,24.117C24.309,24.122 24.34,24.128 24.371,24.134L24.42,24.144L24.467,24.154L24.514,24.165L24.561,24.175L24.622,24.189L24.664,24.199L24.703,24.209C24.734,24.217 24.764,24.225 24.795,24.233L24.842,24.245L24.888,24.258L24.915,24.266L24.957,24.278L24.998,24.29L25.039,24.302L25.074,24.313C25.133,24.331 25.192,24.35 25.252,24.371L25.285,24.382L25.325,24.396L25.366,24.41L25.406,24.425L25.446,24.44L25.478,24.452C25.537,24.474 25.595,24.497 25.653,24.521L25.684,24.534L25.724,24.55L25.763,24.567L25.802,24.584L25.841,24.601L25.873,24.616C25.915,24.635 25.958,24.655 26,24.675C27.497,25.386 28.702,26.614 29.384,28.127L29.399,28.159L29.416,28.198L29.433,28.237L29.45,28.276L29.466,28.316L29.479,28.347C29.503,28.405 29.526,28.463 29.548,28.522L29.56,28.554L29.575,28.594L29.59,28.634L29.604,28.675L29.618,28.715L29.629,28.748C29.649,28.807 29.669,28.867 29.687,28.926L29.698,28.961L29.71,29.002L29.722,29.043L29.734,29.085L29.746,29.126L29.757,29.168L29.767,29.205C29.776,29.236 29.783,29.267 29.791,29.297L29.803,29.345L29.814,29.392L29.825,29.439L29.835,29.486L29.849,29.547L29.858,29.59L29.866,29.629C29.872,29.66 29.878,29.691 29.883,29.722L29.892,29.771L29.901,29.819L29.909,29.867L29.916,29.915L29.924,29.963L29.932,30.022L29.938,30.062C29.942,30.093 29.946,30.124 29.949,30.156L29.955,30.206L29.961,30.255L29.966,30.304L29.97,30.353L29.975,30.403L29.98,30.462L29.983,30.504C29.985,30.535 29.987,30.566 29.989,30.598L29.991,30.65L29.994,30.7L29.996,30.75L29.997,30.799L29.998,30.849L29.999,30.91L30,30.952C30,30.968 30,30.984 30,31C30,32.073 29.758,33.09 29.325,34L29,34C27.344,34 26,32.656 26,31C26,29.344 24.656,28 23,28C23,28 13,28 13,28C11.344,28 10,29.344 10,31C10,32.656 11.344,34 13,34L22.675,34C23.366,35.455 24.545,36.634 26,37.325C25.09,37.758 24.073,38 23,38L13,38C9.137,38 6,34.863 6,31C6,27.137 9.137,24 13,24L23,24Z" style="fill:rgb(21,68,173);"/>
            </g>
        </g>
    </g>
</svg>
